<?xml version="1.0" encoding="UTF-8" standalone="no"?>
<!DOCTYPE svg PUBLIC "-//W3C//DTD SVG 1.1//EN"
 "http://www.w3.org/Graphics/SVG/1.1/DTD/svg11.dtd">
<!-- Generated by graphviz version 14.1.5 (0)
 -->
<!-- Title: CFG for &#39;_Z13graphColoringRSt6vectorIS_IiSaIiEESaIS1_EEii&#39; function Pages: 1 -->
<svg width="1427pt" height="692pt"
 viewBox="0.00 0.00 1427.00 692.00" xmlns="http://www.w3.org/2000/svg" xmlns:xlink="http://www.w3.org/1999/xlink">
<g id="graph0" class="graph" transform="scale(1 1) rotate(0) translate(4 688.25)">
<title>CFG for &#39;_Z13graphColoringRSt6vectorIS_IiSaIiEESaIS1_EEii&#39; function</title>
<polygon fill="white" stroke="none" points="-4,4 -4,-688.25 1422.5,-688.25 1422.5,4 -4,4"/>
<text xml:space="preserve" text-anchor="middle" x="709.25" y="-7.95" font-family="Times,serif" font-size="14.00">CFG for &#39;_Z13graphColoringRSt6vectorIS_IiSaIiEESaIS1_EEii&#39; function</text>
<!-- Node0x55ffc457eed0 -->
<g id="node1" class="node">
<title>Node0x55ffc457eed0</title>
<polygon fill="#b70d28" fill-opacity="0.439216" stroke="#b70d28" points="469,-478 469,-683.75 1136.75,-683.75 1136.75,-478 469,-478"/>
<text xml:space="preserve" text-anchor="start" x="477" y="-666.45" font-family="Courier,monospace" font-size="14.00">entry:</text>
<polyline fill="none" stroke="#b70d28" points="469,-658.5 1136.75,-658.5"/>
<text xml:space="preserve" text-anchor="start" x="477" y="-641.2" font-family="Courier,monospace" font-size="14.00">%color = alloca %&quot;class.std::vector.0&quot;, align 8</text>
<text xml:space="preserve" text-anchor="start" x="477" y="-623.95" font-family="Courier,monospace" font-size="14.00"> %ref.tmp = alloca i32, align 4</text>
<text xml:space="preserve" text-anchor="start" x="477" y="-606.7" font-family="Courier,monospace" font-size="14.00"> %ref.tmp1 = alloca %&quot;class.std::allocator.2&quot;, align 1</text>
<text xml:space="preserve" text-anchor="start" x="477" y="-589.45" font-family="Courier,monospace" font-size="14.00"> %conv = sext i32 %N to i64</text>
<text xml:space="preserve" text-anchor="start" x="477" y="-572.2" font-family="Courier,monospace" font-size="14.00"> store i32 0, ptr %ref.tmp, align 4</text>
<text xml:space="preserve" text-anchor="start" x="477" y="-554.95" font-family="Courier,monospace" font-size="14.00"> invoke void @_ZNSt6vectorIiSaIiEEC2EmRKiRKS0_(ptr noundef nonnull align 8</text>
<text xml:space="preserve" text-anchor="start" x="477" y="-537.7" font-family="Courier,monospace" font-size="14.00">... dereferenceable(24) %color, i64 noundef %conv, ptr noundef nonnull align 4</text>
<text xml:space="preserve" text-anchor="start" x="477" y="-520.45" font-family="Courier,monospace" font-size="14.00">... dereferenceable(4) %ref.tmp, ptr noundef nonnull align 1 dereferenceable(1)</text>
<text xml:space="preserve" text-anchor="start" x="477" y="-503.2" font-family="Courier,monospace" font-size="14.00">... %ref.tmp1)</text>
<text xml:space="preserve" text-anchor="start" x="477" y="-485.95" font-family="Courier,monospace" font-size="14.00"> to label %invoke.cont unwind label %lpad</text>
</g>
<!-- Node0x55ffc457f9b0 -->
<g id="node2" class="node">
<title>Node0x55ffc457f9b0</title>
<polygon fill="#b70d28" fill-opacity="0.439216" stroke="#b70d28" points="147,-287 147,-441 814.75,-441 814.75,-287 147,-287"/>
<text xml:space="preserve" text-anchor="start" x="155" y="-423.7" font-family="Courier,monospace" font-size="14.00">invoke.cont:</text>
<polyline fill="none" stroke="#b70d28" points="147,-415.75 814.75,-415.75"/>
<text xml:space="preserve" text-anchor="start" x="155" y="-398.45" font-family="Courier,monospace" font-size="14.00">call void @_ZNSt15__new_allocatorIiED2Ev(ptr noundef nonnull align 1</text>
<text xml:space="preserve" text-anchor="start" x="155" y="-381.2" font-family="Courier,monospace" font-size="14.00">... dereferenceable(1) %ref.tmp1) #2</text>
<text xml:space="preserve" text-anchor="start" x="155" y="-363.95" font-family="Courier,monospace" font-size="14.00"> %call = invoke noundef zeroext i1</text>
<text xml:space="preserve" text-anchor="start" x="155" y="-346.7" font-family="Courier,monospace" font-size="14.00">... @_Z5solveiRSt6vectorIiSaIiEEiiRS_IS1_SaIS1_EE(i32 noundef 0, ptr noundef</text>
<text xml:space="preserve" text-anchor="start" x="155" y="-329.45" font-family="Courier,monospace" font-size="14.00">... nonnull align 8 dereferenceable(24) %color, i32 noundef %m, i32 noundef %N,</text>
<text xml:space="preserve" text-anchor="start" x="155" y="-312.2" font-family="Courier,monospace" font-size="14.00">... ptr noundef nonnull align 8 dereferenceable(24) %graph)</text>
<text xml:space="preserve" text-anchor="start" x="155" y="-294.95" font-family="Courier,monospace" font-size="14.00"> to label %invoke.cont3 unwind label %lpad2</text>
</g>
<!-- Node0x55ffc457eed0&#45;&gt;Node0x55ffc457f9b0 -->
<g id="edge1" class="edge">
<title>Node0x55ffc457eed0&#45;&gt;Node0x55ffc457f9b0</title>
<path fill="none" stroke="black" d="M649.89,-477.79C634.71,-467.65 619.43,-457.46 604.59,-447.56"/>
<polygon fill="black" stroke="black" points="606.94,-444.92 596.68,-442.28 603.05,-450.74 606.94,-444.92"/>
</g>
<!-- Node0x55ffc457fe30 -->
<g id="node3" class="node">
<title>Node0x55ffc457fe30</title>
<polygon fill="#f4c5ad" fill-opacity="0.439216" stroke="#3d50c3" points="833.25,-304.25 833.25,-423.75 1418.5,-423.75 1418.5,-304.25 833.25,-304.25"/>
<text xml:space="preserve" text-anchor="start" x="841.25" y="-406.45" font-family="Courier,monospace" font-size="14.00">lpad:</text>
<polyline fill="none" stroke="#3d50c3" points="833.25,-398.5 1418.5,-398.5"/>
<text xml:space="preserve" text-anchor="start" x="841.25" y="-381.2" font-family="Courier,monospace" font-size="14.00">%0 = landingpad { ptr, i32 }</text>
<text xml:space="preserve" text-anchor="start" x="841.25" y="-363.95" font-family="Courier,monospace" font-size="14.00"> cleanup</text>
<text xml:space="preserve" text-anchor="start" x="841.25" y="-346.7" font-family="Courier,monospace" font-size="14.00"> call void @_ZNSt15__new_allocatorIiED2Ev(ptr noundef nonnull align 1</text>
<text xml:space="preserve" text-anchor="start" x="841.25" y="-329.45" font-family="Courier,monospace" font-size="14.00">... dereferenceable(1) %ref.tmp1) #2</text>
<text xml:space="preserve" text-anchor="start" x="841.25" y="-312.2" font-family="Courier,monospace" font-size="14.00"> br label %eh.resume</text>
</g>
<!-- Node0x55ffc457eed0&#45;&gt;Node0x55ffc457fe30 -->
<g id="edge2" class="edge">
<title>Node0x55ffc457eed0&#45;&gt;Node0x55ffc457fe30</title>
<path fill="none" stroke="black" d="M956.33,-477.79C980.55,-461.68 1005,-445.41 1027.51,-430.44"/>
<polygon fill="black" stroke="black" points="1029.39,-433.39 1035.77,-424.94 1025.51,-427.56 1029.39,-433.39"/>
</g>
<!-- Node0x55ffc45803c0 -->
<g id="node4" class="node">
<title>Node0x55ffc45803c0</title>
<polygon fill="#b70d28" fill-opacity="0.439216" stroke="#b70d28" points="0,-147.75 0,-232.75 535.75,-232.75 535.75,-147.75 0,-147.75"/>
<text xml:space="preserve" text-anchor="start" x="8" y="-215.45" font-family="Courier,monospace" font-size="14.00">invoke.cont3:</text>
<polyline fill="none" stroke="#b70d28" points="0,-207.5 535.75,-207.5"/>
<text xml:space="preserve" text-anchor="start" x="8" y="-190.2" font-family="Courier,monospace" font-size="14.00">call void @_ZNSt6vectorIiSaIiEED2Ev(ptr noundef nonnull align 8</text>
<text xml:space="preserve" text-anchor="start" x="8" y="-172.95" font-family="Courier,monospace" font-size="14.00">... dead_on_return(24) dereferenceable(24) %color) #2</text>
<text xml:space="preserve" text-anchor="start" x="8" y="-155.7" font-family="Courier,monospace" font-size="14.00"> ret i1 %call</text>
</g>
<!-- Node0x55ffc457f9b0&#45;&gt;Node0x55ffc45803c0 -->
<g id="edge3" class="edge">
<title>Node0x55ffc457f9b0&#45;&gt;Node0x55ffc45803c0</title>
<path fill="none" stroke="black" d="M386.21,-286.67C366.64,-270.88 346.52,-254.67 328.56,-240.18"/>
<polygon fill="black" stroke="black" points="331.08,-237.72 321.1,-234.17 326.69,-243.17 331.08,-237.72"/>
</g>
<!-- Node0x55ffc4580480 -->
<g id="node5" class="node">
<title>Node0x55ffc4580480</title>
<polygon fill="#f4c5ad" fill-opacity="0.439216" stroke="#3d50c3" points="553.88,-130.5 553.88,-250 1097.88,-250 1097.88,-130.5 553.88,-130.5"/>
<text xml:space="preserve" text-anchor="start" x="561.88" y="-232.7" font-family="Courier,monospace" font-size="14.00">lpad2:</text>
<polyline fill="none" stroke="#3d50c3" points="553.88,-224.75 1097.88,-224.75"/>
<text xml:space="preserve" text-anchor="start" x="561.88" y="-207.45" font-family="Courier,monospace" font-size="14.00">%1 = landingpad { ptr, i32 }</text>
<text xml:space="preserve" text-anchor="start" x="561.88" y="-190.2" font-family="Courier,monospace" font-size="14.00"> cleanup</text>
<text xml:space="preserve" text-anchor="start" x="561.88" y="-172.95" font-family="Courier,monospace" font-size="14.00"> call void @_ZNSt6vectorIiSaIiEED2Ev(ptr noundef nonnull align 8</text>
<text xml:space="preserve" text-anchor="start" x="561.88" y="-155.7" font-family="Courier,monospace" font-size="14.00">... dead_on_return(24) dereferenceable(24) %color) #2</text>
<text xml:space="preserve" text-anchor="start" x="561.88" y="-138.45" font-family="Courier,monospace" font-size="14.00"> br label %eh.resume</text>
</g>
<!-- Node0x55ffc457f9b0&#45;&gt;Node0x55ffc4580480 -->
<g id="edge4" class="edge">
<title>Node0x55ffc457f9b0&#45;&gt;Node0x55ffc4580480</title>
<path fill="none" stroke="black" d="M634.46,-286.54C655.3,-276.17 676.52,-265.6 696.87,-255.47"/>
<polygon fill="black" stroke="black" points="698.36,-258.64 705.75,-251.05 695.24,-252.37 698.36,-258.64"/>
</g>
<!-- Node0x55ffc4580f80 -->
<g id="node6" class="node">
<title>Node0x55ffc4580f80</title>
<polygon fill="#f6bfa6" fill-opacity="0.439216" stroke="#3d50c3" points="749.25,-25.75 749.25,-93.5 1202.5,-93.5 1202.5,-25.75 749.25,-25.75"/>
<text xml:space="preserve" text-anchor="start" x="757.25" y="-76.2" font-family="Courier,monospace" font-size="14.00">eh.resume:</text>
<polyline fill="none" stroke="#3d50c3" points="749.25,-68.25 1202.5,-68.25"/>
<text xml:space="preserve" text-anchor="start" x="757.25" y="-50.95" font-family="Courier,monospace" font-size="14.00">%.pn = phi { ptr, i32 } [ %1, %lpad2 ], [ %0, %lpad ]</text>
<text xml:space="preserve" text-anchor="start" x="757.25" y="-33.7" font-family="Courier,monospace" font-size="14.00"> resume { ptr, i32 } %.pn</text>
</g>
<!-- Node0x55ffc457fe30&#45;&gt;Node0x55ffc4580f80 -->
<g id="edge5" class="edge">
<title>Node0x55ffc457fe30&#45;&gt;Node0x55ffc4580f80</title>
<path fill="none" stroke="black" d="M1135.87,-303.89C1141.15,-253.52 1140.7,-181.35 1106.88,-130 1099.17,-118.3 1088.81,-108.44 1077.28,-100.16"/>
<polygon fill="black" stroke="black" points="1079.34,-97.33 1069.08,-94.7 1075.46,-103.15 1079.34,-97.33"/>
</g>
<!-- Node0x55ffc4580480&#45;&gt;Node0x55ffc4580f80 -->
<g id="edge6" class="edge">
<title>Node0x55ffc4580480&#45;&gt;Node0x55ffc4580f80</title>
<path fill="none" stroke="black" d="M894.73,-130.21C906.28,-120.31 918.02,-110.24 928.85,-100.95"/>
<polygon fill="black" stroke="black" points="930.86,-103.84 936.17,-94.67 926.3,-98.52 930.86,-103.84"/>
</g>
</g>
</svg>
