<?xml version="1.0" encoding="UTF-8" standalone="no"?>
<!DOCTYPE svg PUBLIC "-//W3C//DTD SVG 1.1//EN"
 "http://www.w3.org/Graphics/SVG/1.1/DTD/svg11.dtd">
<!-- Generated by graphviz version 14.1.5 (0)
 -->
<!-- Title: CFG for &#39;_Z5solveiRSt6vectorIiSaIiEEiiRS_IS1_SaIS1_EE&#39; function Pages: 1 -->
<svg width="1463pt" height="1142pt"
 viewBox="0.00 0.00 1463.00 1142.00" xmlns="http://www.w3.org/2000/svg" xmlns:xlink="http://www.w3.org/1999/xlink">
<g id="graph0" class="graph" transform="scale(1 1) rotate(0) translate(4 1138)">
<title>CFG for &#39;_Z5solveiRSt6vectorIiSaIiEEiiRS_IS1_SaIS1_EE&#39; function</title>
<polygon fill="white" stroke="none" points="-4,4 -4,-1138 1459.38,-1138 1459.38,4 -4,4"/>
<text xml:space="preserve" text-anchor="middle" x="727.69" y="-7.95" font-family="Times,serif" font-size="14.00">CFG for &#39;_Z5solveiRSt6vectorIiSaIiEEiiRS_IS1_SaIS1_EE&#39; function</text>
<!-- Node0x558fbd59df90 -->
<g id="node1" class="node">
<title>Node0x558fbd59df90</title>
<polygon fill="#cc403a" fill-opacity="0.439216" stroke="#3d50c3" points="232.12,-1040.5 232.12,-1133.5 586.38,-1133.5 586.38,-1040.5 232.12,-1040.5"/>
<text xml:space="preserve" text-anchor="start" x="240.12" y="-1116.2" font-family="Courier,monospace" font-size="14.00">entry:</text>
<polyline fill="none" stroke="#3d50c3" points="232.12,-1108.25 586.38,-1108.25"/>
<text xml:space="preserve" text-anchor="start" x="240.12" y="-1090.95" font-family="Courier,monospace" font-size="14.00">%cmp = icmp eq i32 %node, %N</text>
<text xml:space="preserve" text-anchor="start" x="240.12" y="-1073.7" font-family="Courier,monospace" font-size="14.00"> br i1 %cmp, label %return, label %if.end</text>
<polyline fill="none" stroke="#3d50c3" points="232.12,-1065.75 586.38,-1065.75"/>
<text xml:space="preserve" text-anchor="middle" x="320.25" y="-1048.45" font-family="Courier,monospace" font-size="14.00">T</text>
<polyline fill="none" stroke="#3d50c3" points="408.38,-1040.5 408.38,-1065.75"/>
<text xml:space="preserve" text-anchor="middle" x="497" y="-1048.45" font-family="Courier,monospace" font-size="14.00">F</text>
</g>
<!-- Node0x558fbd59d980 -->
<g id="node2" class="node">
<title>Node0x558fbd59d980</title>
<polygon fill="#cc403a" fill-opacity="0.439216" stroke="#3d50c3" points="0,-156.38 0,-241.38 560.5,-241.38 560.5,-156.38 0,-156.38"/>
<text xml:space="preserve" text-anchor="start" x="8" y="-224.07" font-family="Courier,monospace" font-size="14.00">return:</text>
<polyline fill="none" stroke="#3d50c3" points="0,-216.12 560.5,-216.12"/>
<text xml:space="preserve" text-anchor="start" x="8" y="-198.82" font-family="Courier,monospace" font-size="14.00">%retval.0 = phi i1 [ true, %if.then2 ], [ true, %entry ], [ false,</text>
<text xml:space="preserve" text-anchor="start" x="8" y="-181.57" font-family="Courier,monospace" font-size="14.00">... %for.cond ]</text>
<text xml:space="preserve" text-anchor="start" x="8" y="-164.32" font-family="Courier,monospace" font-size="14.00"> ret i1 %retval.0</text>
</g>
<!-- Node0x558fbd59df90&#45;&gt;Node0x558fbd59d980 -->
<g id="edge1" class="edge">
<title>Node0x558fbd59df90:s0&#45;&gt;Node0x558fbd59d980</title>
<path fill="none" stroke="black" d="M320.25,-1040C320.25,-944.85 295.25,-922.53 295.25,-827.38 295.25,-827.38 295.25,-827.38 295.25,-660.88 295.25,-513.12 287.46,-338.86 283.11,-253.07"/>
<polygon fill="black" stroke="black" points="286.61,-253.13 282.61,-243.32 279.62,-253.49 286.61,-253.13"/>
</g>
<!-- Node0x558fbd59ef30 -->
<g id="node3" class="node">
<title>Node0x558fbd59ef30</title>
<polygon fill="#d24b40" fill-opacity="0.439216" stroke="#3d50c3" points="335.5,-918.5 335.5,-1003.5 731,-1003.5 731,-918.5 335.5,-918.5"/>
<text xml:space="preserve" text-anchor="start" x="343.5" y="-986.2" font-family="Courier,monospace" font-size="14.00">if.end:</text>
<polyline fill="none" stroke="#3d50c3" points="335.5,-978.25 731,-978.25"/>
<text xml:space="preserve" text-anchor="start" x="343.5" y="-960.95" font-family="Courier,monospace" font-size="14.00">%smax = call i32 @llvm.smax.i32(i32 %m, i32 0)</text>
<text xml:space="preserve" text-anchor="start" x="343.5" y="-943.7" font-family="Courier,monospace" font-size="14.00"> %0 = add nuw i32 %smax, 1</text>
<text xml:space="preserve" text-anchor="start" x="343.5" y="-926.45" font-family="Courier,monospace" font-size="14.00"> br label %for.cond</text>
</g>
<!-- Node0x558fbd59df90&#45;&gt;Node0x558fbd59ef30 -->
<g id="edge2" class="edge">
<title>Node0x558fbd59df90:s1&#45;&gt;Node0x558fbd59ef30</title>
<path fill="none" stroke="black" d="M497,-1040C497,-1031.38 498.84,-1022.69 501.7,-1014.38"/>
<polygon fill="black" stroke="black" points="504.93,-1015.73 505.4,-1005.14 498.43,-1013.13 504.93,-1015.73"/>
</g>
<!-- Node0x558fbd59fd10 -->
<g id="node4" class="node">
<title>Node0x558fbd59fd10</title>
<polygon fill="#b70d28" fill-opacity="0.439216" stroke="#b70d28" points="343.75,-771.25 343.75,-881.5 788.75,-881.5 788.75,-771.25 343.75,-771.25"/>
<text xml:space="preserve" text-anchor="start" x="351.75" y="-864.2" font-family="Courier,monospace" font-size="14.00">for.cond:</text>
<polyline fill="none" stroke="#b70d28" points="343.75,-856.25 788.75,-856.25"/>
<text xml:space="preserve" text-anchor="start" x="351.75" y="-838.95" font-family="Courier,monospace" font-size="14.00">%i.0 = phi i32 [ 1, %if.end ], [ %inc, %for.inc ]</text>
<text xml:space="preserve" text-anchor="start" x="351.75" y="-821.7" font-family="Courier,monospace" font-size="14.00"> %exitcond.not = icmp eq i32 %i.0, %0</text>
<text xml:space="preserve" text-anchor="start" x="351.75" y="-804.45" font-family="Courier,monospace" font-size="14.00"> br i1 %exitcond.not, label %return, label %for.body</text>
<polyline fill="none" stroke="#b70d28" points="343.75,-796.5 788.75,-796.5"/>
<text xml:space="preserve" text-anchor="middle" x="454.88" y="-779.2" font-family="Courier,monospace" font-size="14.00">T</text>
<polyline fill="none" stroke="#b70d28" points="566,-771.25 566,-796.5"/>
<text xml:space="preserve" text-anchor="middle" x="677.12" y="-779.2" font-family="Courier,monospace" font-size="14.00">F</text>
</g>
<!-- Node0x558fbd59ef30&#45;&gt;Node0x558fbd59fd10 -->
<g id="edge3" class="edge">
<title>Node0x558fbd59ef30&#45;&gt;Node0x558fbd59fd10</title>
<path fill="none" stroke="black" d="M543.69,-918.04C545.71,-909.93 547.87,-901.25 550.02,-892.6"/>
<polygon fill="black" stroke="black" points="553.35,-893.72 552.37,-883.17 546.56,-892.03 553.35,-893.72"/>
</g>
<!-- Node0x558fbd59fd10&#45;&gt;Node0x558fbd59d980 -->
<g id="edge4" class="edge">
<title>Node0x558fbd59fd10:s0&#45;&gt;Node0x558fbd59d980</title>
<path fill="none" stroke="black" d="M454.88,-770.75C454.88,-572 356.89,-350.68 307.72,-252.13"/>
<polygon fill="black" stroke="black" points="310.85,-250.56 303.22,-243.2 304.59,-253.71 310.85,-250.56"/>
</g>
<!-- Node0x558fbd5a0450 -->
<g id="node5" class="node">
<title>Node0x558fbd5a0450</title>
<polygon fill="#b70d28" fill-opacity="0.439216" stroke="#b70d28" points="771.12,-589.5 771.12,-734.25 1455.38,-734.25 1455.38,-589.5 771.12,-589.5"/>
<text xml:space="preserve" text-anchor="start" x="779.12" y="-716.95" font-family="Courier,monospace" font-size="14.00">for.body:</text>
<polyline fill="none" stroke="#b70d28" points="771.12,-709 1455.38,-709"/>
<text xml:space="preserve" text-anchor="start" x="779.12" y="-691.7" font-family="Courier,monospace" font-size="14.00">%call = call noundef zeroext i1</text>
<text xml:space="preserve" text-anchor="start" x="779.12" y="-674.45" font-family="Courier,monospace" font-size="14.00">... @_Z6isSafeiRSt6vectorIiSaIiEERS_IS1_SaIS1_EEii(i32 noundef %node, ptr noundef</text>
<text xml:space="preserve" text-anchor="start" x="779.12" y="-657.2" font-family="Courier,monospace" font-size="14.00">... nonnull align 8 dereferenceable(24) %color, ptr noundef nonnull align 8</text>
<text xml:space="preserve" text-anchor="start" x="779.12" y="-639.95" font-family="Courier,monospace" font-size="14.00">... dereferenceable(24) %graph, i32 noundef %N, i32 noundef %i.0)</text>
<text xml:space="preserve" text-anchor="start" x="779.12" y="-622.7" font-family="Courier,monospace" font-size="14.00"> br i1 %call, label %if.then2, label %for.inc</text>
<polyline fill="none" stroke="#b70d28" points="771.12,-614.75 1455.38,-614.75"/>
<text xml:space="preserve" text-anchor="middle" x="941.75" y="-597.45" font-family="Courier,monospace" font-size="14.00">T</text>
<polyline fill="none" stroke="#b70d28" points="1112.38,-589.5 1112.38,-614.75"/>
<text xml:space="preserve" text-anchor="middle" x="1283.5" y="-597.45" font-family="Courier,monospace" font-size="14.00">F</text>
</g>
<!-- Node0x558fbd59fd10&#45;&gt;Node0x558fbd5a0450 -->
<g id="edge5" class="edge">
<title>Node0x558fbd59fd10:s1&#45;&gt;Node0x558fbd5a0450</title>
<path fill="none" stroke="black" d="M789.25,-783.88C852.56,-783.88 918.68,-763.35 974.56,-739.21"/>
<polygon fill="black" stroke="black" points="975.75,-742.51 983.48,-735.27 972.92,-736.1 975.75,-742.51"/>
</g>
<!-- Node0x558fbd5a04e0 -->
<g id="node6" class="node">
<title>Node0x558fbd5a04e0</title>
<polygon fill="#be242e" fill-opacity="0.439216" stroke="#3d50c3" points="608.38,-304.25 608.38,-552.5 1276.12,-552.5 1276.12,-304.25 608.38,-304.25"/>
<text xml:space="preserve" text-anchor="start" x="616.38" y="-535.2" font-family="Courier,monospace" font-size="14.00">if.then2:</text>
<polyline fill="none" stroke="#3d50c3" points="608.38,-527.25 1276.12,-527.25"/>
<text xml:space="preserve" text-anchor="start" x="616.38" y="-509.95" font-family="Courier,monospace" font-size="14.00">%conv = sext i32 %node to i64</text>
<text xml:space="preserve" text-anchor="start" x="616.38" y="-492.7" font-family="Courier,monospace" font-size="14.00"> %call3 = call noundef nonnull align 4 dereferenceable(4) ptr</text>
<text xml:space="preserve" text-anchor="start" x="616.38" y="-475.45" font-family="Courier,monospace" font-size="14.00">... @_ZNSt6vectorIiSaIiEEixEm(ptr noundef nonnull align 8 dereferenceable(24)</text>
<text xml:space="preserve" text-anchor="start" x="616.38" y="-458.2" font-family="Courier,monospace" font-size="14.00">... %color, i64 noundef %conv) #3</text>
<text xml:space="preserve" text-anchor="start" x="616.38" y="-440.95" font-family="Courier,monospace" font-size="14.00"> store i32 %i.0, ptr %call3, align 4</text>
<text xml:space="preserve" text-anchor="start" x="616.38" y="-423.7" font-family="Courier,monospace" font-size="14.00"> %add = add nsw i32 %node, 1</text>
<text xml:space="preserve" text-anchor="start" x="616.38" y="-406.45" font-family="Courier,monospace" font-size="14.00"> %call4 = call noundef zeroext i1</text>
<text xml:space="preserve" text-anchor="start" x="616.38" y="-389.2" font-family="Courier,monospace" font-size="14.00">... @_Z5solveiRSt6vectorIiSaIiEEiiRS_IS1_SaIS1_EE(i32 noundef %add, ptr noundef</text>
<text xml:space="preserve" text-anchor="start" x="616.38" y="-371.95" font-family="Courier,monospace" font-size="14.00">... nonnull align 8 dereferenceable(24) %color, i32 noundef %m, i32 noundef %N,</text>
<text xml:space="preserve" text-anchor="start" x="616.38" y="-354.7" font-family="Courier,monospace" font-size="14.00">... ptr noundef nonnull align 8 dereferenceable(24) %graph)</text>
<text xml:space="preserve" text-anchor="start" x="616.38" y="-337.45" font-family="Courier,monospace" font-size="14.00"> br i1 %call4, label %return, label %if.end6</text>
<polyline fill="none" stroke="#3d50c3" points="608.38,-329.5 1276.12,-329.5"/>
<text xml:space="preserve" text-anchor="middle" x="775" y="-312.2" font-family="Courier,monospace" font-size="14.00">T</text>
<polyline fill="none" stroke="#3d50c3" points="941.62,-304.25 941.62,-329.5"/>
<text xml:space="preserve" text-anchor="middle" x="1108.75" y="-312.2" font-family="Courier,monospace" font-size="14.00">F</text>
</g>
<!-- Node0x558fbd5a0450&#45;&gt;Node0x558fbd5a04e0 -->
<g id="edge6" class="edge">
<title>Node0x558fbd5a0450:s0&#45;&gt;Node0x558fbd5a04e0</title>
<path fill="none" stroke="black" d="M941.75,-589C941.75,-580.9 941.76,-572.57 941.77,-564.17"/>
<polygon fill="black" stroke="black" points="945.27,-564.21 941.78,-554.2 938.27,-564.19 945.27,-564.21"/>
</g>
<!-- Node0x558fbd5a0030 -->
<g id="node7" class="node">
<title>Node0x558fbd5a0030</title>
<polygon fill="#b70d28" fill-opacity="0.439216" stroke="#b70d28" points="802,-25.75 802,-93.5 1098.5,-93.5 1098.5,-25.75 802,-25.75"/>
<text xml:space="preserve" text-anchor="start" x="810" y="-76.2" font-family="Courier,monospace" font-size="14.00">for.inc:</text>
<polyline fill="none" stroke="#b70d28" points="802,-68.25 1098.5,-68.25"/>
<text xml:space="preserve" text-anchor="start" x="810" y="-50.95" font-family="Courier,monospace" font-size="14.00">%inc = add nuw i32 %i.0, 1</text>
<text xml:space="preserve" text-anchor="start" x="810" y="-33.7" font-family="Courier,monospace" font-size="14.00"> br label %for.cond, !llvm.loop !7</text>
</g>
<!-- Node0x558fbd5a0450&#45;&gt;Node0x558fbd5a0030 -->
<g id="edge7" class="edge">
<title>Node0x558fbd5a0450:s1&#45;&gt;Node0x558fbd5a0030</title>
<path fill="none" stroke="black" d="M1283.5,-589C1283.5,-487 1349.65,-209.1 1285.25,-130 1262.29,-101.79 1184.62,-84.7 1109.84,-74.54"/>
<polygon fill="black" stroke="black" points="1110.71,-71.12 1100.34,-73.28 1109.8,-78.06 1110.71,-71.12"/>
</g>
<!-- Node0x558fbd5a04e0&#45;&gt;Node0x558fbd59d980 -->
<g id="edge8" class="edge">
<title>Node0x558fbd5a04e0:s0&#45;&gt;Node0x558fbd59d980</title>
<path fill="none" stroke="black" d="M607.38,-316.88C520.06,-316.88 426.9,-279.47 362.42,-246.95"/>
<polygon fill="black" stroke="black" points="364.16,-243.92 353.67,-242.47 360.97,-250.15 364.16,-243.92"/>
</g>
<!-- Node0x558fbd5a0800 -->
<g id="node8" class="node">
<title>Node0x558fbd5a0800</title>
<polygon fill="#be242e" fill-opacity="0.439216" stroke="#3d50c3" points="624.62,-130.5 624.62,-267.25 1275.88,-267.25 1275.88,-130.5 624.62,-130.5"/>
<text xml:space="preserve" text-anchor="start" x="632.62" y="-249.95" font-family="Courier,monospace" font-size="14.00">if.end6:</text>
<polyline fill="none" stroke="#3d50c3" points="624.62,-242 1275.88,-242"/>
<text xml:space="preserve" text-anchor="start" x="632.62" y="-224.7" font-family="Courier,monospace" font-size="14.00">%conv7 = sext i32 %node to i64</text>
<text xml:space="preserve" text-anchor="start" x="632.62" y="-207.45" font-family="Courier,monospace" font-size="14.00"> %call8 = call noundef nonnull align 4 dereferenceable(4) ptr</text>
<text xml:space="preserve" text-anchor="start" x="632.62" y="-190.2" font-family="Courier,monospace" font-size="14.00">... @_ZNSt6vectorIiSaIiEEixEm(ptr noundef nonnull align 8 dereferenceable(24)</text>
<text xml:space="preserve" text-anchor="start" x="632.62" y="-172.95" font-family="Courier,monospace" font-size="14.00">... %color, i64 noundef %conv7) #3</text>
<text xml:space="preserve" text-anchor="start" x="632.62" y="-155.7" font-family="Courier,monospace" font-size="14.00"> store i32 0, ptr %call8, align 4</text>
<text xml:space="preserve" text-anchor="start" x="632.62" y="-138.45" font-family="Courier,monospace" font-size="14.00"> br label %for.inc</text>
</g>
<!-- Node0x558fbd5a04e0&#45;&gt;Node0x558fbd5a0800 -->
<g id="edge9" class="edge">
<title>Node0x558fbd5a04e0:s1&#45;&gt;Node0x558fbd5a0800</title>
<path fill="none" stroke="black" d="M1108.75,-303.75C1108.75,-294.26 1106.74,-285.58 1103.16,-277.67"/>
<polygon fill="black" stroke="black" points="1106.27,-276.04 1098.34,-269.01 1100.15,-279.45 1106.27,-276.04"/>
</g>
<!-- Node0x558fbd5a0030&#45;&gt;Node0x558fbd59fd10 -->
<g id="edge11" class="edge">
<title>Node0x558fbd5a0030&#45;&gt;Node0x558fbd59fd10</title>
<path fill="none" stroke="black" d="M801.75,-74.05C724.33,-84.31 640.58,-101.65 615.25,-130 573.88,-176.3 567.35,-595.16 566.39,-759.57"/>
<polygon fill="black" stroke="black" points="562.89,-759.42 566.33,-769.44 569.89,-759.46 562.89,-759.42"/>
</g>
<!-- Node0x558fbd5a0800&#45;&gt;Node0x558fbd5a0030 -->
<g id="edge10" class="edge">
<title>Node0x558fbd5a0800&#45;&gt;Node0x558fbd5a0030</title>
<path fill="none" stroke="black" d="M950.25,-130.05C950.25,-121.61 950.25,-113.16 950.25,-105.2"/>
<polygon fill="black" stroke="black" points="953.75,-105.46 950.25,-95.46 946.75,-105.46 953.75,-105.46"/>
</g>
</g>
</svg>
