<?xml version="1.0" encoding="UTF-8" standalone="no"?>
<!DOCTYPE svg PUBLIC "-//W3C//DTD SVG 1.1//EN"
 "http://www.w3.org/Graphics/SVG/1.1/DTD/svg11.dtd">
<!-- Generated by graphviz version 14.1.5 (0)
 -->
<!-- Title: CFG for &#39;_Z5solveiRSt6vectorIiSaIiEEiiRS_IS1_SaIS1_EE&#39; function Pages: 1 -->
<svg width="1463pt" height="1020pt"
 viewBox="0.00 0.00 1463.00 1020.00" xmlns="http://www.w3.org/2000/svg" xmlns:xlink="http://www.w3.org/1999/xlink">
<g id="graph0" class="graph" transform="scale(1 1) rotate(0) translate(4 1016)">
<title>CFG for &#39;_Z5solveiRSt6vectorIiSaIiEEiiRS_IS1_SaIS1_EE&#39; function</title>
<polygon fill="white" stroke="none" points="-4,4 -4,-1016 1459.38,-1016 1459.38,4 -4,4"/>
<text xml:space="preserve" text-anchor="middle" x="727.69" y="-7.95" font-family="Times,serif" font-size="14.00">CFG for &#39;_Z5solveiRSt6vectorIiSaIiEEiiRS_IS1_SaIS1_EE&#39; function</text>
<!-- Node0x55ffc457b440 -->
<g id="node1" class="node">
<title>Node0x55ffc457b440</title>
<polygon fill="#cc403a" fill-opacity="0.439216" stroke="#3d50c3" points="230.88,-918.5 230.88,-1011.5 601.62,-1011.5 601.62,-918.5 230.88,-918.5"/>
<text xml:space="preserve" text-anchor="start" x="238.88" y="-994.2" font-family="Courier,monospace" font-size="14.00">entry:</text>
<polyline fill="none" stroke="#3d50c3" points="230.88,-986.25 601.62,-986.25"/>
<text xml:space="preserve" text-anchor="start" x="238.88" y="-968.95" font-family="Courier,monospace" font-size="14.00">%cmp = icmp eq i32 %node, %N</text>
<text xml:space="preserve" text-anchor="start" x="238.88" y="-951.7" font-family="Courier,monospace" font-size="14.00"> br i1 %cmp, label %return, label %for.cond</text>
<polyline fill="none" stroke="#3d50c3" points="230.88,-943.75 601.62,-943.75"/>
<text xml:space="preserve" text-anchor="middle" x="323.5" y="-926.45" font-family="Courier,monospace" font-size="14.00">T</text>
<polyline fill="none" stroke="#3d50c3" points="416.12,-918.5 416.12,-943.75"/>
<text xml:space="preserve" text-anchor="middle" x="508.75" y="-926.45" font-family="Courier,monospace" font-size="14.00">F</text>
</g>
<!-- Node0x55ffc457ac80 -->
<g id="node2" class="node">
<title>Node0x55ffc457ac80</title>
<polygon fill="#cc403a" fill-opacity="0.439216" stroke="#3d50c3" points="0,-156.38 0,-241.38 560.5,-241.38 560.5,-156.38 0,-156.38"/>
<text xml:space="preserve" text-anchor="start" x="8" y="-224.07" font-family="Courier,monospace" font-size="14.00">return:</text>
<polyline fill="none" stroke="#3d50c3" points="0,-216.12 560.5,-216.12"/>
<text xml:space="preserve" text-anchor="start" x="8" y="-198.82" font-family="Courier,monospace" font-size="14.00">%retval.0 = phi i1 [ true, %if.then2 ], [ true, %entry ], [ false,</text>
<text xml:space="preserve" text-anchor="start" x="8" y="-181.57" font-family="Courier,monospace" font-size="14.00">... %for.cond ]</text>
<text xml:space="preserve" text-anchor="start" x="8" y="-164.32" font-family="Courier,monospace" font-size="14.00"> ret i1 %retval.0</text>
</g>
<!-- Node0x55ffc457b440&#45;&gt;Node0x55ffc457ac80 -->
<g id="edge1" class="edge">
<title>Node0x55ffc457b440:s0&#45;&gt;Node0x55ffc457ac80</title>
<path fill="none" stroke="black" d="M323.5,-918C323.5,-668.69 297.21,-371.58 285.62,-252.78"/>
<polygon fill="black" stroke="black" points="289.12,-252.63 284.66,-243.02 282.16,-253.31 289.12,-252.63"/>
</g>
<!-- Node0x55ffc457c9d0 -->
<g id="node3" class="node">
<title>Node0x55ffc457c9d0</title>
<polygon fill="#b70d28" fill-opacity="0.439216" stroke="#b70d28" points="356.25,-771.25 356.25,-881.5 768.25,-881.5 768.25,-771.25 356.25,-771.25"/>
<text xml:space="preserve" text-anchor="start" x="364.25" y="-864.2" font-family="Courier,monospace" font-size="14.00">for.cond:</text>
<polyline fill="none" stroke="#b70d28" points="356.25,-856.25 768.25,-856.25"/>
<text xml:space="preserve" text-anchor="start" x="364.25" y="-838.95" font-family="Courier,monospace" font-size="14.00">%i.0 = phi i32 [ %inc, %for.inc ], [ 1, %entry ]</text>
<text xml:space="preserve" text-anchor="start" x="364.25" y="-821.7" font-family="Courier,monospace" font-size="14.00"> %cmp1.not = icmp sgt i32 %i.0, %m</text>
<text xml:space="preserve" text-anchor="start" x="364.25" y="-804.45" font-family="Courier,monospace" font-size="14.00"> br i1 %cmp1.not, label %return, label %for.body</text>
<polyline fill="none" stroke="#b70d28" points="356.25,-796.5 768.25,-796.5"/>
<text xml:space="preserve" text-anchor="middle" x="458.88" y="-779.2" font-family="Courier,monospace" font-size="14.00">T</text>
<polyline fill="none" stroke="#b70d28" points="561.5,-771.25 561.5,-796.5"/>
<text xml:space="preserve" text-anchor="middle" x="664.62" y="-779.2" font-family="Courier,monospace" font-size="14.00">F</text>
</g>
<!-- Node0x55ffc457b440&#45;&gt;Node0x55ffc457c9d0 -->
<g id="edge2" class="edge">
<title>Node0x55ffc457b440:s1&#45;&gt;Node0x55ffc457c9d0</title>
<path fill="none" stroke="black" d="M508.75,-918C508.75,-909.14 510.67,-900.38 513.79,-892"/>
<polygon fill="black" stroke="black" points="516.92,-893.57 517.71,-883.01 510.5,-890.77 516.92,-893.57"/>
</g>
<!-- Node0x55ffc457c9d0&#45;&gt;Node0x55ffc457ac80 -->
<g id="edge3" class="edge">
<title>Node0x55ffc457c9d0:s0&#45;&gt;Node0x55ffc457ac80</title>
<path fill="none" stroke="black" d="M458.88,-770.75C458.88,-571.41 358.44,-350.04 308.19,-251.76"/>
<polygon fill="black" stroke="black" points="311.44,-250.42 303.75,-243.13 305.22,-253.63 311.44,-250.42"/>
</g>
<!-- Node0x55ffc457db40 -->
<g id="node4" class="node">
<title>Node0x55ffc457db40</title>
<polygon fill="#b70d28" fill-opacity="0.439216" stroke="#b70d28" points="771.12,-589.5 771.12,-734.25 1455.38,-734.25 1455.38,-589.5 771.12,-589.5"/>
<text xml:space="preserve" text-anchor="start" x="779.12" y="-716.95" font-family="Courier,monospace" font-size="14.00">for.body:</text>
<polyline fill="none" stroke="#b70d28" points="771.12,-709 1455.38,-709"/>
<text xml:space="preserve" text-anchor="start" x="779.12" y="-691.7" font-family="Courier,monospace" font-size="14.00">%call = call noundef zeroext i1</text>
<text xml:space="preserve" text-anchor="start" x="779.12" y="-674.45" font-family="Courier,monospace" font-size="14.00">... @_Z6isSafeiRSt6vectorIiSaIiEERS_IS1_SaIS1_EEii(i32 noundef %node, ptr noundef</text>
<text xml:space="preserve" text-anchor="start" x="779.12" y="-657.2" font-family="Courier,monospace" font-size="14.00">... nonnull align 8 dereferenceable(24) %color, ptr noundef nonnull align 8</text>
<text xml:space="preserve" text-anchor="start" x="779.12" y="-639.95" font-family="Courier,monospace" font-size="14.00">... dereferenceable(24) %graph, i32 noundef %N, i32 noundef %i.0)</text>
<text xml:space="preserve" text-anchor="start" x="779.12" y="-622.7" font-family="Courier,monospace" font-size="14.00"> br i1 %call, label %if.then2, label %for.inc</text>
<polyline fill="none" stroke="#b70d28" points="771.12,-614.75 1455.38,-614.75"/>
<text xml:space="preserve" text-anchor="middle" x="941.75" y="-597.45" font-family="Courier,monospace" font-size="14.00">T</text>
<polyline fill="none" stroke="#b70d28" points="1112.38,-589.5 1112.38,-614.75"/>
<text xml:space="preserve" text-anchor="middle" x="1283.5" y="-597.45" font-family="Courier,monospace" font-size="14.00">F</text>
</g>
<!-- Node0x55ffc457c9d0&#45;&gt;Node0x55ffc457db40 -->
<g id="edge4" class="edge">
<title>Node0x55ffc457c9d0:s1&#45;&gt;Node0x55ffc457db40</title>
<path fill="none" stroke="black" d="M768.75,-783.88C835.73,-783.88 906.1,-763.26 965.66,-739.06"/>
<polygon fill="black" stroke="black" points="966.97,-742.3 974.87,-735.24 964.29,-735.83 966.97,-742.3"/>
</g>
<!-- Node0x55ffc457dd70 -->
<g id="node5" class="node">
<title>Node0x55ffc457dd70</title>
<polygon fill="#be242e" fill-opacity="0.439216" stroke="#3d50c3" points="608.38,-304.25 608.38,-552.5 1276.12,-552.5 1276.12,-304.25 608.38,-304.25"/>
<text xml:space="preserve" text-anchor="start" x="616.38" y="-535.2" font-family="Courier,monospace" font-size="14.00">if.then2:</text>
<polyline fill="none" stroke="#3d50c3" points="608.38,-527.25 1276.12,-527.25"/>
<text xml:space="preserve" text-anchor="start" x="616.38" y="-509.95" font-family="Courier,monospace" font-size="14.00">%conv = sext i32 %node to i64</text>
<text xml:space="preserve" text-anchor="start" x="616.38" y="-492.7" font-family="Courier,monospace" font-size="14.00"> %call3 = call noundef nonnull align 4 dereferenceable(4) ptr</text>
<text xml:space="preserve" text-anchor="start" x="616.38" y="-475.45" font-family="Courier,monospace" font-size="14.00">... @_ZNSt6vectorIiSaIiEEixEm(ptr noundef nonnull align 8 dereferenceable(24)</text>
<text xml:space="preserve" text-anchor="start" x="616.38" y="-458.2" font-family="Courier,monospace" font-size="14.00">... %color, i64 noundef %conv) #2</text>
<text xml:space="preserve" text-anchor="start" x="616.38" y="-440.95" font-family="Courier,monospace" font-size="14.00"> store i32 %i.0, ptr %call3, align 4</text>
<text xml:space="preserve" text-anchor="start" x="616.38" y="-423.7" font-family="Courier,monospace" font-size="14.00"> %add = add nsw i32 %node, 1</text>
<text xml:space="preserve" text-anchor="start" x="616.38" y="-406.45" font-family="Courier,monospace" font-size="14.00"> %call4 = call noundef zeroext i1</text>
<text xml:space="preserve" text-anchor="start" x="616.38" y="-389.2" font-family="Courier,monospace" font-size="14.00">... @_Z5solveiRSt6vectorIiSaIiEEiiRS_IS1_SaIS1_EE(i32 noundef %add, ptr noundef</text>
<text xml:space="preserve" text-anchor="start" x="616.38" y="-371.95" font-family="Courier,monospace" font-size="14.00">... nonnull align 8 dereferenceable(24) %color, i32 noundef %m, i32 noundef %N,</text>
<text xml:space="preserve" text-anchor="start" x="616.38" y="-354.7" font-family="Courier,monospace" font-size="14.00">... ptr noundef nonnull align 8 dereferenceable(24) %graph)</text>
<text xml:space="preserve" text-anchor="start" x="616.38" y="-337.45" font-family="Courier,monospace" font-size="14.00"> br i1 %call4, label %return, label %if.end6</text>
<polyline fill="none" stroke="#3d50c3" points="608.38,-329.5 1276.12,-329.5"/>
<text xml:space="preserve" text-anchor="middle" x="775" y="-312.2" font-family="Courier,monospace" font-size="14.00">T</text>
<polyline fill="none" stroke="#3d50c3" points="941.62,-304.25 941.62,-329.5"/>
<text xml:space="preserve" text-anchor="middle" x="1108.75" y="-312.2" font-family="Courier,monospace" font-size="14.00">F</text>
</g>
<!-- Node0x55ffc457db40&#45;&gt;Node0x55ffc457dd70 -->
<g id="edge5" class="edge">
<title>Node0x55ffc457db40:s0&#45;&gt;Node0x55ffc457dd70</title>
<path fill="none" stroke="black" d="M941.75,-589C941.75,-580.9 941.76,-572.57 941.77,-564.17"/>
<polygon fill="black" stroke="black" points="945.27,-564.21 941.78,-554.2 938.27,-564.19 945.27,-564.21"/>
</g>
<!-- Node0x55ffc457d950 -->
<g id="node6" class="node">
<title>Node0x55ffc457d950</title>
<polygon fill="#b70d28" fill-opacity="0.439216" stroke="#b70d28" points="802,-25.75 802,-93.5 1098.5,-93.5 1098.5,-25.75 802,-25.75"/>
<text xml:space="preserve" text-anchor="start" x="810" y="-76.2" font-family="Courier,monospace" font-size="14.00">for.inc:</text>
<polyline fill="none" stroke="#b70d28" points="802,-68.25 1098.5,-68.25"/>
<text xml:space="preserve" text-anchor="start" x="810" y="-50.95" font-family="Courier,monospace" font-size="14.00">%inc = add nuw nsw i32 %i.0, 1</text>
<text xml:space="preserve" text-anchor="start" x="810" y="-33.7" font-family="Courier,monospace" font-size="14.00"> br label %for.cond, !llvm.loop !7</text>
</g>
<!-- Node0x55ffc457db40&#45;&gt;Node0x55ffc457d950 -->
<g id="edge6" class="edge">
<title>Node0x55ffc457db40:s1&#45;&gt;Node0x55ffc457d950</title>
<path fill="none" stroke="black" d="M1283.5,-589C1283.5,-487 1349.65,-209.1 1285.25,-130 1262.29,-101.79 1184.62,-84.7 1109.84,-74.54"/>
<polygon fill="black" stroke="black" points="1110.71,-71.12 1100.34,-73.28 1109.8,-78.06 1110.71,-71.12"/>
</g>
<!-- Node0x55ffc457dd70&#45;&gt;Node0x55ffc457ac80 -->
<g id="edge7" class="edge">
<title>Node0x55ffc457dd70:s0&#45;&gt;Node0x55ffc457ac80</title>
<path fill="none" stroke="black" d="M607.38,-316.88C520.06,-316.88 426.9,-279.47 362.42,-246.95"/>
<polygon fill="black" stroke="black" points="364.16,-243.92 353.67,-242.47 360.97,-250.15 364.16,-243.92"/>
</g>
<!-- Node0x55ffc457e040 -->
<g id="node7" class="node">
<title>Node0x55ffc457e040</title>
<polygon fill="#be242e" fill-opacity="0.439216" stroke="#3d50c3" points="624.62,-130.5 624.62,-267.25 1275.88,-267.25 1275.88,-130.5 624.62,-130.5"/>
<text xml:space="preserve" text-anchor="start" x="632.62" y="-249.95" font-family="Courier,monospace" font-size="14.00">if.end6:</text>
<polyline fill="none" stroke="#3d50c3" points="624.62,-242 1275.88,-242"/>
<text xml:space="preserve" text-anchor="start" x="632.62" y="-224.7" font-family="Courier,monospace" font-size="14.00">%conv7 = sext i32 %node to i64</text>
<text xml:space="preserve" text-anchor="start" x="632.62" y="-207.45" font-family="Courier,monospace" font-size="14.00"> %call8 = call noundef nonnull align 4 dereferenceable(4) ptr</text>
<text xml:space="preserve" text-anchor="start" x="632.62" y="-190.2" font-family="Courier,monospace" font-size="14.00">... @_ZNSt6vectorIiSaIiEEixEm(ptr noundef nonnull align 8 dereferenceable(24)</text>
<text xml:space="preserve" text-anchor="start" x="632.62" y="-172.95" font-family="Courier,monospace" font-size="14.00">... %color, i64 noundef %conv7) #2</text>
<text xml:space="preserve" text-anchor="start" x="632.62" y="-155.7" font-family="Courier,monospace" font-size="14.00"> store i32 0, ptr %call8, align 4</text>
<text xml:space="preserve" text-anchor="start" x="632.62" y="-138.45" font-family="Courier,monospace" font-size="14.00"> br label %for.inc</text>
</g>
<!-- Node0x55ffc457dd70&#45;&gt;Node0x55ffc457e040 -->
<g id="edge8" class="edge">
<title>Node0x55ffc457dd70:s1&#45;&gt;Node0x55ffc457e040</title>
<path fill="none" stroke="black" d="M1108.75,-303.75C1108.75,-294.26 1106.74,-285.58 1103.16,-277.67"/>
<polygon fill="black" stroke="black" points="1106.27,-276.04 1098.34,-269.01 1100.15,-279.45 1106.27,-276.04"/>
</g>
<!-- Node0x55ffc457d950&#45;&gt;Node0x55ffc457c9d0 -->
<g id="edge10" class="edge">
<title>Node0x55ffc457d950&#45;&gt;Node0x55ffc457c9d0</title>
<path fill="none" stroke="black" d="M801.75,-74.05C724.33,-84.31 640.58,-101.65 615.25,-130 573.87,-176.32 564.77,-595.16 562.79,-759.57"/>
<polygon fill="black" stroke="black" points="559.3,-759.4 562.68,-769.44 566.3,-759.48 559.3,-759.4"/>
</g>
<!-- Node0x55ffc457e040&#45;&gt;Node0x55ffc457d950 -->
<g id="edge9" class="edge">
<title>Node0x55ffc457e040&#45;&gt;Node0x55ffc457d950</title>
<path fill="none" stroke="black" d="M950.25,-130.05C950.25,-121.61 950.25,-113.16 950.25,-105.2"/>
<polygon fill="black" stroke="black" points="953.75,-105.46 950.25,-95.46 946.75,-105.46 953.75,-105.46"/>
</g>
</g>
</svg>
